<?xml version="1.0" encoding="utf-8" ?>
<svg xmlns="http://www.w3.org/2000/svg" xmlns:xlink="http://www.w3.org/1999/xlink" width="977" height="977">
	<path fill="#E18033" transform="scale(0.954102 0.954102)" d="M452.712 321.46C459.063 322.896 465.221 324.627 470.743 328.201C474.968 330.936 479.543 335.015 480.472 340.188C481.177 344.114 479.753 347.232 477.596 350.408C475.126 352.156 472.475 352.92 469.431 352.906C465.892 352.889 462.781 350.864 460.392 348.402C453.438 341.237 452.748 330.88 452.712 321.46Z"/>
	<path fill="#E18033" transform="scale(0.954102 0.954102)" d="M570.259 321.525L571.707 321.471L572.285 322.047C573.824 327.355 572.493 334.62 570.527 339.703C568.498 344.948 564.789 349.912 559.438 352.063C555.542 353.63 551.908 353.284 548.118 351.709C546.203 350.049 544.859 348.111 544.035 345.693C543.055 342.821 543.547 340.068 544.944 337.428C549.697 328.442 561.145 324.233 570.259 321.525Z"/>
	<path fill="#AC2936" transform="scale(0.954102 0.954102)" d="M579.026 409.042L599.48 409.082L599.43 491.583L579.066 491.597L579.026 409.042Z"/>
	<path fill="#F2C237" transform="scale(0.954102 0.954102)" d="M429.816 353.705C443.694 352.921 457.122 354.92 469.345 361.876C481.657 368.883 490.604 379.434 494.395 393.148C487.885 394.774 480.968 395.377 474.275 395.504C464.44 395.556 454.895 394.766 445.643 391.197C429.749 385.066 415.795 371.753 408.936 356.18C415.833 354.732 422.801 354.194 429.816 353.705Z"/>
	<path fill="#F2C237" transform="scale(0.954102 0.954102)" d="M579.78 354.175C591.587 352.94 603.538 355.025 615.171 356.871C613.773 359.867 612.002 362.764 610.082 365.455C598.905 381.121 582.512 391.728 563.529 394.872C557.416 395.805 532.431 396.462 527.788 392.918C527.121 392.409 527.056 391.877 526.997 391.056C526.704 386.959 531.487 380.073 533.974 376.971C545.349 362.785 562.117 356.176 579.78 354.175Z"/>
	<path fill="#AC2936" transform="scale(0.954102 0.954102)" d="M508.378 409.248L564.964 409.052L565.074 425.819C555.885 425.915 546.679 425.764 537.488 425.729L537.508 484.125L537.514 491.83Q527.279 491.796 517.046 492.001L517.073 425.653L489.82 425.948C489.409 420.474 489.519 414.943 489.488 409.454C495.713 408.995 502.129 409.259 508.378 409.248Z"/>
	<path fill="#F2C237" transform="scale(0.954102 0.954102)" d="M512.468 291.166C513.424 291.408 514.011 291.741 514.694 292.435C517.412 295.201 519.298 298.935 521.194 302.287C528.021 314.361 533.352 327.242 533.392 341.345C533.445 359.675 525.294 375.874 512.575 388.697C510.779 388.215 509.077 386.893 507.653 385.734C498.248 378.081 492.969 365.629 491.717 353.799C489.309 331.032 498.403 308.709 512.468 291.166Z"/>
	<path fill="#AC2936" transform="scale(0.954102 0.954102)" d="M333.23 408.9Q342.536 409.097 351.843 408.968C362.407 436.848 375.813 463.649 386.499 491.482L365.394 491.501C363.456 485.45 360.95 479.483 358.779 473.5L351.375 473.575L324.351 473.521C322.131 479.659 319.493 485.654 316.973 491.674C310.674 491.448 304.341 491.508 298.037 491.446C303.616 477.597 309.869 464.058 315.753 450.341C321.662 436.564 327.191 422.622 333.23 408.9ZM341.603 429.788L330.1 459.876L342.405 459.928L353.743 459.892C350.068 449.863 346.463 439.309 341.603 429.788Z"/>
	<path fill="#AC2936" transform="scale(0.954102 0.954102)" d="M456.929 409.046L476.513 409.031C476.562 436.604 476.915 464.237 476.337 491.803L472.625 491.811C468.379 491.808 464.129 491.89 459.883 491.934C447.568 474.071 431.987 458.048 418.525 440.976L418.498 491.566L399.05 491.599C399.046 481.119 398.188 413.61 399.45 409.541L403.27 409.236Q409.707 409.116 416.144 409.274C420.348 414.169 424.221 419.437 428.299 424.45Q442.215 441.834 457.022 458.467C456.723 442.01 456.949 425.508 456.929 409.046Z"/>
	<path fill="#AC2936" transform="scale(0.954102 0.954102)" d="M697.266 408.726L713.665 409.039L713.971 491.495L694.549 491.515L694.546 460.106C694.542 454.46 694.047 448.385 695.005 442.819C691.018 450.312 686.122 457.471 681.646 464.694C678.069 470.464 674.682 476.926 670.425 482.201C668.58 483.238 666.487 483.042 664.424 483.086C655.421 471.018 647.833 457.424 639.598 444.775L639.74 458.618L639.926 491.927Q630.261 491.695 620.595 491.845L620.567 409.216Q629.019 409.04 637.469 409.266C646.634 425.903 658.888 440.92 667.534 457.736C677.356 441.339 687.728 425.298 697.266 408.726Z"/>
	<path fill="#F2C237" transform="scale(0.954102 0.954102)" d="M774.117 631.25C777.54 631.255 785.179 629.813 787.656 632.517C789.397 634.417 788.719 638.022 788.603 640.395C743.41 640.921 698.151 640.445 652.951 640.44L374.096 640.484C333.032 640.548 291.878 639.991 250.826 640.742C247.365 640.618 239.642 641.846 237.191 639.257C235.4 637.366 235.942 633.917 235.99 631.509C255.578 631.05 275.241 631.373 294.836 631.376L399.539 631.396L774.117 631.25Z"/>
	<path fill="#E18033" transform="scale(0.954102 0.954102)" d="M625.933 380.568L673.509 380.506C709.516 380.494 734.581 380.979 761.987 408.381Q763.082 409.46 764.139 410.575Q765.196 411.69 766.215 412.84Q767.234 413.991 768.214 415.175Q769.193 416.359 770.132 417.576Q771.07 418.793 771.967 420.04Q772.864 421.288 773.718 422.566Q774.572 423.843 775.382 425.149Q776.193 426.455 776.958 427.788Q777.724 429.12 778.443 430.478Q779.163 431.835 779.837 433.217Q780.51 434.598 781.136 436.001Q781.763 437.405 782.341 438.829Q782.919 440.252 783.449 441.695Q783.978 443.137 784.459 444.597Q784.939 446.057 785.37 447.532Q785.801 449.007 786.181 450.496C791.963 473.59 789.006 500.824 788.949 524.583L788.872 625.085Q705.201 624.398 621.528 624.912L235.582 624.959L235.493 520.756C235.408 500.914 233.688 480.615 236.093 460.873C239.196 435.402 253.335 415.072 273.25 399.549C299.558 380.208 322.912 381.097 353.757 381.074Q376.199 380.972 398.641 381.128C398.705 385.199 398.535 389.296 398.467 393.368L350.741 393.24C318.1 393.13 295.932 391.638 270.85 416.777C244.931 442.754 246.29 471.621 246.432 505.516L777.032 505.578C777.149 494.566 777.495 483.485 777.037 472.48C776.317 455.181 771.045 439.523 760.723 425.559C747.855 408.149 727.305 395.481 705.684 393.009C696.43 391.951 686.952 392.578 677.648 392.618C665.902 392.669 654.104 392.447 642.369 392.875C638.436 393.019 630.417 394.398 627.545 391.409C625.22 388.99 625.918 383.621 625.933 380.568ZM627.394 520.483L597.793 595.13C587.822 583.882 578.896 571.644 569.735 559.733C579.21 546.765 589.939 533.857 600.782 522.027Q592.89 521.908 584.997 521.871C576.996 532.673 568.944 543.411 559.455 552.969Q559.661 537.489 559.518 522.009C554.868 521.93 550.166 521.7 545.521 521.932Q545.702 536.59 545.684 551.25L545.503 598.578L559.349 598.57L559.428 566.506C567.932 577.229 576.686 587.834 584.544 599.046C593.005 599.032 601.491 598.886 609.949 599.136L616.372 581.573L643.97 581.587Q647.19 590.304 650.099 599.13L664.653 598.921C653.428 573.085 645.027 546.013 632.672 520.689C630.917 520.623 629.144 520.611 627.394 520.483ZM680.8 521.73L670.02 522.082Q669.206 560.624 669.982 599.165L683.15 599.018C683.111 588.839 682.962 578.649 683.062 568.471C689.839 576.997 695.693 586.28 702.073 595.107L704.904 599.119Q712.738 598.996 720.574 599.015C712.984 587.777 705.392 576.577 696.344 566.443C703.326 563.888 709.806 560.51 713.245 553.472C715.735 548.374 715.84 542.279 713.792 537.012C711.503 531.128 706.644 526.914 700.883 524.561C694.543 521.972 687.557 521.737 680.8 521.73ZM417.66 521.53C418.331 532.147 417.722 543.041 417.674 553.699C417.606 568.75 417.87 583.818 417.939 598.872C422.418 598.683 426.869 598.66 431.351 598.706C430.844 582.252 430.905 565.508 431.285 549.048C441.907 560.153 451.273 572.875 460.967 584.808C464.441 589.086 468.158 594.811 472.361 598.302C473.237 599.03 474.154 598.93 475.232 598.959C476.196 598.985 477.161 598.967 478.125 598.985L479.454 598.867C480.64 596.529 479.688 530.64 479.906 521.686L466.458 521.626L466.531 571.979C452.503 554.875 439.407 537.445 424.015 521.487L417.66 521.53ZM375.476 521.445C365.097 547.317 355.159 573.817 343.172 598.975C348.031 598.97 352.917 598.854 357.772 599.027C360.089 593.137 362.313 587.191 365.177 581.539L381.375 581.625L392.081 581.589Q395.833 589.987 398.564 598.77Q405.904 598.608 413.245 598.597C402.659 572.961 393.513 546.639 381.8 521.478L375.476 521.445ZM508.986 521.581C502.93 523.291 497.952 525.906 494.798 531.66C492.177 536.443 490.818 543.006 492.558 548.295C497.475 563.239 529.321 566.093 522.728 580.79C521.249 584.089 519.616 585.304 516.234 586.574C512.237 588.074 508.605 587.284 504.857 585.485C501.934 584.081 499.651 582.055 497.279 579.899C494.293 582.972 491.068 585.984 488.422 589.356C495.522 595.352 502.795 599.462 512.297 599.746C519.511 599.42 526.328 597.821 531.393 592.232C535.314 587.905 537.623 580.728 537.178 574.956C536.752 569.452 533.989 565.084 529.778 561.643C523.585 556.582 506.714 551.12 505.397 542.711C505.072 540.637 505.724 537.979 506.953 536.272C508.371 534.304 511.246 533.129 513.6 532.93C518.897 532.48 523.068 535.796 526.881 538.985Q530.191 533.641 533.218 528.132C525.23 522.77 518.601 520.804 508.986 521.581ZM320.084 521.086C313.787 522.667 308.208 525.194 304.79 531.057C301.89 536.032 300.827 542.364 302.331 547.954C306.511 563.493 335.292 570.324 329.4 581.632C328.117 584.094 325.135 586.543 322.439 587.23C317.335 588.531 312.83 586.755 308.558 584.02C305.635 582.149 303.274 579.662 301.004 577.064Q301.092 585.7 301.466 594.328C308.006 597.693 313.513 599.588 320.93 599.613C327.56 599.138 333.027 597.465 337.59 592.332C341.388 588.06 344.364 582.233 343.756 576.389C343.091 569.987 338.507 564.788 333.589 561.007C327.724 556.497 315.022 550.466 314.037 542.373C313.798 540.413 314.401 538.91 315.683 537.477C317.58 535.358 320.428 533.487 323.358 533.494C329.485 533.509 335.616 537.643 340.459 541.012C340.434 536.123 340.54 531.193 340.079 526.322C333.874 522.112 327.64 520.174 320.084 521.086Z"/>
	<path fill="#E18033" transform="scale(0.954102 0.954102)" d="M378.423 544.229C383.224 551.586 385.895 562.102 388.888 570.43L378.375 570.523L368.992 570.542C372.143 561.78 375.597 553.102 378.423 544.229Z"/>
	<path fill="#E18033" transform="scale(0.954102 0.954102)" d="M683.076 533.5C688.249 533.459 693.489 534.137 697.739 537.353C699.807 538.918 701.486 541.124 701.788 543.762C702.19 547.275 700.404 550.119 698.323 552.751C693.558 556.214 688.727 556.365 683.069 556.525L683.076 533.5Z"/>
	<path fill="#E18033" transform="scale(0.954102 0.954102)" d="M629.72 545.793C634.019 549.677 637.685 564.49 639.657 570.46L631.25 570.477L620.991 570.457C623.638 562.163 626.774 553.987 629.72 545.793Z"/>
</svg>
