<?xml version="1.0" encoding="utf-8" ?>
<svg xmlns="http://www.w3.org/2000/svg" xmlns:xlink="http://www.w3.org/1999/xlink" width="1024" height="1024">
	<path fill="#ECE9E0" d="M772.868 133.935C773.517 131.848 773.929 129.809 775.514 128.221L776.731 127.749C777.878 128.284 778.431 128.784 778.939 129.988C779.494 131.305 779.619 132.954 779.72 134.368C782.945 134.772 785.423 134.701 787.654 137.359C787.765 138.215 788.007 138.504 787.47 139.259C786.47 140.661 785.032 141.253 783.368 141.475C782.37 141.608 781.353 141.627 780.347 141.643C780.293 145.028 780.161 148.434 780.253 151.819C786.337 156.222 791.706 161.001 793.074 168.828C793.817 173.081 792.914 177.523 790.27 180.974C787.559 184.515 783.839 186.281 779.742 187.731Q779.817 196.277 779.725 204.823C812.961 207.426 841.521 220.507 863.433 246.033C879.048 264.222 888.657 289.47 892.004 313.021C904.009 315.383 915.865 318.365 927.84 320.853C934.216 322.177 941.253 322.852 947.44 324.775C949.664 325.467 952.604 326.707 954.011 328.666C954.727 329.664 955.132 331.001 954.839 332.219C954.38 334.127 952.552 335.358 950.902 336.171C944.427 339.36 925.261 340.028 917.028 341.308C916.952 361.107 916.346 380.986 916.701 400.773C932.641 403.516 963.874 406.817 977.416 412.751C977.409 416.232 977.993 420.708 975.832 423.648C969.163 427.952 941.535 428.585 932.425 428.987L932.627 522.425C947.426 522.992 980.725 525.477 993.508 530.482C993.623 564.389 988.507 597.383 979.978 630.151Q979.024 633.887 978.008 637.607Q976.993 641.326 975.915 645.029Q974.838 648.731 973.7 652.415Q972.561 656.099 971.362 659.764Q970.163 663.429 968.903 667.073Q967.643 670.717 966.323 674.34Q965.003 677.963 963.623 681.564Q962.243 685.164 960.804 688.741Q959.365 692.319 957.867 695.871Q956.368 699.424 954.811 702.952Q953.254 706.48 951.639 709.981Q950.024 713.482 948.351 716.956Q946.678 720.43 944.948 723.876Q943.218 727.322 941.431 730.739Q939.644 734.156 937.8 737.542Q935.957 740.929 934.057 744.285Q932.158 747.641 930.204 750.964Q928.249 754.288 926.24 757.579Q924.23 760.87 922.167 764.127Q920.103 767.385 917.986 770.607Q915.868 773.83 913.698 777.017Q911.528 780.204 909.305 783.355Q907.082 786.505 904.807 789.619Q902.532 792.732 900.206 795.807Q897.88 798.883 895.504 801.919Q893.127 804.956 890.701 807.952Q888.274 810.949 885.798 813.905Q883.322 816.861 880.798 819.776Q878.273 822.69 875.701 825.562Q873.129 828.435 870.509 831.264Q867.889 834.094 865.223 836.879Q862.557 839.665 859.845 842.406C841.387 860.982 822.263 878.447 801.163 894.031C729.712 946.801 636.706 982.32 547.338 982.543C520.079 982.61 495.583 980.368 468.728 975.8C470.253 963.316 469.526 949.9 469.516 937.326C469.48 889.862 465.791 842.414 461.348 795.183C468.933 793.13 475.177 789.231 480.161 783.11C502.61 755.537 494.703 691.563 491.425 658.149C490.114 644.782 489.106 631.387 487.739 618.025C500.113 612.711 512.285 606.925 524.696 601.707Q570.119 582.401 617.038 567.085L616.947 481.576C616.944 463.133 616.599 444.635 616.95 426.2C608.602 425.549 571.196 422.516 566.685 417.177C565.467 415.736 564.423 413.413 564.716 411.489C565.006 409.582 566.453 408.247 568.028 407.309C569.844 406.227 571.994 405.625 574.061 405.244C581.988 403.782 590.274 403.371 598.283 402.324C610.218 400.762 622.457 398.544 634.46 397.79C634.465 379.202 635.207 360.231 634.151 341.691L633.461 341.488C626.099 339.35 601.797 339.736 598.426 333.725C597.773 332.56 597.504 331.36 597.821 330.035C598.21 328.405 599.396 327.184 600.842 326.43C606.316 323.576 653.751 315.329 662.287 314.119C665.705 281.278 680.163 251.714 706.005 230.846C725.226 215.325 747.635 206.914 772.132 204.912L772.325 188.185C767.245 186.19 762.869 183.68 760.469 178.483C758.478 174.171 758.681 169.314 760.39 164.951C763.294 157.534 769.25 155.206 773.326 149.214L773.394 141.749C769.996 141.122 767.523 141.078 765.276 138.184C765.065 137.107 764.88 136.635 765.696 135.714C767.354 133.845 770.621 133.971 772.868 133.935ZM775.622 212.713C744.31 215.173 716.47 226.931 695.827 251.275C680.725 269.087 673.403 289.997 670.084 312.82C687.685 310.139 705.166 306.365 722.669 303.097C741.637 299.555 760.665 296.465 779.606 292.75C783.505 292.005 787.257 291.211 791.25 291.611C803.248 292.812 815.715 296.995 827.535 299.58L865.269 307.689C871.629 309.037 878.156 310.14 884.449 311.754C877.735 278.359 864.477 250.647 835.372 231.145C820.706 221.318 793.524 211.083 775.622 212.713ZM775.878 408.29L695.493 416.134C681.277 417.637 666.738 420.08 652.491 420.618L652.543 556.404C657.818 555.013 663.122 553.418 668.445 552.245L668.342 500.326C668.312 486.92 667.514 473.263 669.945 460.025C672.781 449.023 678.242 439.459 688.219 433.489C696.587 428.481 707.066 427.183 716.467 429.649Q717.382 429.881 718.284 430.157Q719.186 430.434 720.074 430.754Q720.961 431.075 721.832 431.439Q722.703 431.803 723.554 432.21Q724.406 432.617 725.236 433.065Q726.067 433.513 726.874 434.002Q727.681 434.491 728.463 435.019Q729.246 435.547 730.001 436.113Q730.756 436.679 731.482 437.282Q732.208 437.884 732.904 438.522Q733.599 439.16 734.263 439.831Q734.926 440.502 735.555 441.206Q736.185 441.909 736.778 442.642Q737.372 443.376 737.929 444.138Q738.486 444.9 739.004 445.688Q739.523 446.477 740.002 447.29C742.798 452.098 744.469 457.54 745.233 463.034C746.487 472.065 745.63 481.442 745.538 490.539C745.384 505.812 745.32 521.169 746.037 536.429Q757.066 534.599 768.117 532.905C772.51 532.258 777.104 531.909 781.426 530.93L781.901 407.839L775.878 408.29ZM819.664 412.511L819.107 526.808C842.94 524.519 866.886 522.433 890.848 522.51L895.541 522.385L895.428 422.678C879.851 421.102 864.273 418.537 848.749 416.418C839.173 415.11 829.124 414.375 819.664 412.511ZM782.043 320.85C768.194 322.198 754.362 324.666 740.627 326.859L674.285 337.173C663.433 338.832 652.478 340.898 641.581 342.15C641.667 349.231 640.697 393.276 642.14 396.124C659.468 395.103 676.851 392.406 694.074 390.28Q738.25 384.689 782.535 380.031L782.555 322.246L782.361 322.375L782.339 320.989L782.043 320.85ZM790.437 320.653L790.51 379.25Q850.118 390.221 910.001 399.573C909.999 380.848 910.494 361.62 909.305 342.941C903.123 340.538 895.862 339.679 889.343 338.434Q869.837 334.668 850.241 331.403C830.293 327.932 810.488 323.498 790.437 320.653ZM701.428 436.643C693.077 438.706 686.549 442.336 681.931 449.855C679.319 454.108 677.882 458.83 677.167 463.746C675.584 474.622 676.509 486.392 676.556 497.374L676.539 550.283C687.253 547.884 697.989 545.479 708.815 543.635C718.562 541.894 728.878 540.648 738.294 537.586C737.869 523.732 737.871 509.757 738.032 495.895C738.166 484.379 739.728 472.282 737.046 460.974C735.567 454.733 732.629 449.048 727.967 444.588C721.589 438.486 713.879 436.192 705.257 436.438Q703.34 436.499 701.428 436.643ZM785.806 299.7C757.442 303.117 729.119 309.412 701.043 314.709C672.699 320.057 644.302 324.603 616.067 330.568C623.636 332.5 631.622 334.451 639.484 334.412C652.519 334.346 666.271 330.889 679.196 328.992Q724.538 322.706 769.632 314.84C775.722 313.897 781.944 312.633 788.126 312.795C800.871 313.128 814.208 316.798 826.726 319.217L882.65 329.616C891.766 331.305 901.129 333.784 910.416 334.072C919.533 334.355 928.695 332.499 937.653 330.991C910.578 323.853 882.633 318.769 855.243 312.924L817.314 304.698C810.213 303.154 803.129 301.346 795.948 300.21C792.632 299.685 789.16 299.203 785.806 299.7ZM644.424 421.381C638.107 421.725 631.652 422.424 625.457 423.72C625.452 438.701 624.678 560.918 625.896 563.985L626.946 563.936C632.946 562.133 638.86 560.076 644.847 558.245C643.889 545.814 644.635 532.922 644.711 520.439C644.865 495.236 645.228 469.978 644.736 444.779C644.625 439.088 645.463 426.175 644.424 421.381ZM789.981 408.379L789.597 530.313C796.338 529.624 803.242 529.193 809.885 527.825C810.663 527.408 810.976 527.478 811.27 526.592C812.288 523.522 811.47 497.393 811.468 491.386Q811.143 451.101 811.997 410.824C804.768 409.874 797.272 408.558 789.981 408.379ZM776.293 387.708C758.994 389.252 741.861 391.744 724.642 393.952L665.774 401.102Q638.839 404.272 611.947 407.782C600.578 409.292 588.699 410.523 577.611 413.511L589.387 415.429C596.278 416.5 603.134 417.502 610.128 417.51C621.261 417.522 632.526 415.558 643.552 414.152Q662.985 411.646 682.488 409.751Q732.617 404.351 782.881 400.391C782.751 396.091 782.711 391.764 782.39 387.474C780.4 387.534 778.257 387.43 776.293 387.708ZM902.973 424.174C903.861 436.946 903.518 449.811 903.492 462.608Q903.482 492.299 903.128 521.987C908.824 522.021 919.59 522.912 924.715 521.717C925.054 510.745 924.6 499.858 924.56 488.893L924.519 426.642Q913.754 425.34 902.973 424.174ZM790.566 387.383L790.464 400.536Q825.756 405.172 860.923 410.671L898.63 416.414C920.772 419.73 944.135 423.649 966.38 418.68L967.247 418.159L967.101 417.407C964.726 416.147 962.146 415.666 959.527 415.159C950.304 413.374 940.935 412.079 931.666 410.534L854.822 397.905Q838.374 395.124 821.965 392.118C811.637 390.176 801.105 387.529 790.566 387.383ZM772.742 158.892C769.537 162.403 765.92 167.023 766.035 172.023C766.089 174.372 767.024 176.487 768.75 178.09C770.986 180.165 774.214 180.938 777.198 180.737C780.218 180.534 783.105 179.421 785.032 177.002C787.203 174.277 787.081 171.153 786.743 167.858C785.168 163.938 783.5 161.945 780.269 159.322L779.817 158.95C779.947 164.393 781.204 173.724 777.759 178.21C776.669 178.622 776.43 178.707 775.317 178.088C773.644 177.157 772.657 175.142 772.398 173.326C771.767 168.895 774.052 162.865 772.742 158.892Z"/>
	<path d="M207.545 180.738C207.167 167.707 206.84 154.608 210.207 141.886C217.967 112.567 237.921 88.7525 263.955 73.7334Q265.29 72.9618 266.643 72.2231Q267.996 71.4844 269.367 70.7791Q270.738 70.0738 272.126 69.4024Q273.514 68.7309 274.918 68.0937Q276.322 67.4564 277.741 66.8538Q279.16 66.2511 280.594 65.6835Q282.027 65.1158 283.474 64.5834Q284.921 64.051 286.381 63.5543Q287.84 63.0576 289.312 62.5968Q290.783 62.1359 292.265 61.7113Q293.747 61.2867 295.239 60.8986Q296.731 60.5104 298.233 60.159Q299.734 59.8075 301.243 59.4929Q302.753 59.1784 304.269 58.9009Q305.786 58.6234 307.309 58.3832Q308.832 58.143 310.36 57.9402Q311.888 57.7374 313.421 57.5721Q314.954 57.4069 316.491 57.2792Q318.027 57.1515 319.566 57.0616Q321.105 56.9716 322.646 56.9194Q324.187 56.8672 325.729 56.8528Q327.271 56.8384 328.812 56.8618Q330.354 56.8851 331.895 56.9463Q333.435 57.0075 334.974 57.1064Q336.512 57.2053 338.048 57.3419Q339.584 57.4784 341.116 57.6526Q342.648 57.8268 344.175 58.0385Q345.702 58.2502 347.223 58.4993Q348.745 58.7483 350.26 59.0346Q351.775 59.3209 353.282 59.6442Q354.79 59.9675 356.289 60.3277Q357.788 60.6879 359.278 61.0847C373.469 65.0029 381.223 70.6463 393.721 76.1208C404.613 80.8916 415.508 83.0573 425.301 90.3101C429.841 93.6723 433.774 97.6439 437.583 101.796C439.53 103.919 441.67 106.889 443.988 108.565C445.15 109.405 446.932 109.821 448.278 110.303Q449.17 110.622 450.028 111.022Q450.887 111.423 451.704 111.901Q452.522 112.379 453.292 112.931Q454.061 113.483 454.776 114.104Q455.492 114.725 456.146 115.409Q456.801 116.094 457.389 116.836Q457.977 117.578 458.494 118.372Q459.011 119.166 459.452 120.004C463.91 128.31 462.172 137.569 459.445 146.067C463.263 157.997 469.301 171.775 468.827 184.377C468.455 194.285 464.796 202.402 457.579 209.168C455.554 217.975 450.255 224.724 447.746 233.181C442.079 252.281 456.705 263.91 461.387 280.505C460.547 283.268 459.696 285.961 457.701 288.149C452.487 293.868 444.462 289.989 437.968 290.678C435.12 290.981 432.664 291.964 430.836 294.199C429.568 298.077 433.02 300.03 433.798 303.498C434.075 304.729 433.98 305.717 433.228 306.736C430.667 310.202 424.484 310.453 420.624 310.945C421.697 314.038 423.938 318.869 422.754 322.169C422.182 323.759 417.466 324.859 415.893 327.785C412.876 333.401 413.483 340.56 410.714 346.448C408.637 350.865 405.053 354.138 400.38 355.606C383.828 360.807 359.416 346.277 344.779 338.896C337.2 348.648 329.877 358.507 323.497 369.091C327.802 374.002 331.657 379.425 335.715 384.549C356.537 410.837 375.148 438.906 394.634 466.189C397.474 459.305 399.982 451.945 401.217 444.597C401.827 440.966 400.534 435.796 401.957 432.561C402.53 431.257 403.302 430.682 404.593 430.129C405.51 430.141 406.13 430.198 406.981 430.589C412.135 432.957 415.561 440.284 417.645 445.159C422.589 434.452 426.58 423.282 431.231 412.44Q438.667 395.047 448.549 378.918C450.729 375.336 453.777 370.108 458.311 369.402C461.24 368.947 463.154 370.693 465.297 372.404C466.911 367.996 469.433 360.746 474.286 358.922C475.474 358.475 476.583 358.391 477.729 359.026C480.592 360.613 481.108 364.151 481.863 367.033C483.873 366.517 486.092 365.827 488.166 366.411C492.121 367.526 491.015 376.103 492.557 379.544C494.063 379.752 495.837 380.049 497.2 380.739C504.559 384.462 498.345 399.777 501.053 406.402C502.23 409.279 506.286 407.463 508.735 408.9C510.526 409.952 511.029 411.749 511.316 413.667C513.052 425.273 512.227 437.216 511.81 448.893C510.691 480.246 506.927 525.424 493.47 554.076C491.264 558.775 488.471 562.896 485.385 567.054C485.538 583.949 486.077 601.2 487.739 618.025C489.106 631.387 490.114 644.782 491.425 658.149C494.703 691.563 502.61 755.537 480.161 783.11C475.177 789.231 468.933 793.13 461.348 795.183C465.791 842.414 469.48 889.862 469.516 937.326C469.526 949.9 470.253 963.316 468.728 975.8C466.974 984.982 469.914 1009.68 464.417 1015.83C463.417 1016.24 462.614 1016.52 461.537 1016.62L461.506 1024L380.668 1024L374.528 1024L345.674 1024L340.023 1024L333.755 1024L330.905 1024L301.552 1024L295.391 1024L238.89 1024L233.219 1024L221.3 1024L216.394 1024L158.045 1024L153.522 1024L47.4063 1024Q47.9353 1016.64 48.1112 1009.27C46.1307 989.621 47.2896 970.567 48.3801 950.928Q49.726 927.501 50.5587 904.051C51.6242 872.777 52.0756 841.536 53.871 810.281Q57.2504 757.184 63.1322 704.306C73.1299 612.337 89.603 510.928 123.791 424.732C127.584 415.169 132.002 405.836 136.163 396.428C141.299 384.817 146.335 368.767 154.809 359.45C162.627 350.856 173.086 345.524 180.453 336.313C189.733 324.71 196.59 310.069 211.048 303.961C218.884 300.649 225.885 301.8 233.519 304.825Q240.316 295.106 246.99 285.303C239.22 279.13 231.423 273.206 224.418 266.143C223.453 272.279 222.333 278.26 219.543 283.865C215.665 291.659 208.963 297.153 200.725 299.859C188.085 304.01 174.359 301.522 162.74 295.616C144.962 286.579 127.623 269.803 121.375 250.511C116.51 235.487 117.192 216.955 124.575 202.834C130.562 191.383 140.933 183.122 153.233 179.301C166.497 175.181 181.949 176.012 194.322 182.406C198.488 184.559 202.167 187.659 206.332 189.736C207.411 190.274 207.63 190.525 208.792 190.148C208.763 189.826 208.797 189.492 208.704 189.183C207.575 185.459 200.222 179.312 197.116 177.043C184.358 167.725 172.714 167.945 157.985 170.077C163.086 167.229 168.36 165.714 174.199 165.527C187.673 165.096 198.025 171.871 207.545 180.738ZM461.328 169.852C455.715 182.271 451.748 188.91 456.825 202.692C462.211 194.922 465.432 185.626 463.567 176.091C463.213 174.281 462.576 171.199 461.328 169.852ZM215.151 224.353C214.161 228.523 212.434 234.167 214.728 238.151C215.478 239.454 216.529 240.404 218.03 240.712C218.534 240.815 219.046 240.879 219.555 240.951C220.779 236.949 219.659 233.371 217.764 229.768C217 228.315 216.138 225.405 215.151 224.353ZM211.075 205.804C210.822 209.256 209.957 215.064 212.136 217.974C212.611 218.609 213.303 218.535 214.032 218.683C214.851 215.056 213.824 209.261 211.513 206.276C211.381 206.107 211.221 205.962 211.075 205.804Z"/>
	<path fill="#482F2F" d="M251.981 276.03C252.737 276.162 252.377 275.984 252.964 276.723C252.423 278.412 250.875 279.838 249.712 281.164C248.928 279.969 248.188 279.082 248.254 277.582C249.127 276.463 250.667 276.346 251.981 276.03Z"/>
	<path fill="#EBBEAC" d="M290.392 251.168C291.289 251.844 291.911 252.446 292.371 253.498C293.555 256.203 292.482 259.227 291.475 261.799C290.758 261.443 290.168 261.152 289.708 260.458C288.046 257.95 289.598 253.735 290.392 251.168Z"/>
	<path fill="#F38F85" d="M485.283 370.174C486.693 370.794 487.026 371.442 487.626 372.766C487.442 375.816 485.289 377.649 483.269 379.678L482.352 380.197L481.8 379.66C482.016 376.051 483.295 373.134 485.283 370.174Z"/>
	<path fill="#EBBEAC" d="M494.816 385.376C495.54 386.19 495.391 385.88 495.794 386.924C497.328 390.906 496.89 398.662 495.317 402.468L493.9 401.111C492.273 396.007 493.59 390.44 494.816 385.376Z"/>
	<path fill="#F38F85" d="M462.797 966.849C463.256 968.9 463.695 971.88 462.664 973.795C462.221 974.134 461.369 974.681 461.007 975.149C460.152 976.255 460.545 977.015 460.741 978.302C460.045 979.767 459.352 980.057 458.039 980.967C457.265 980.311 456.838 979.734 456.322 978.862C456.214 975.059 460.656 969.965 462.797 966.849Z"/>
	<path fill="#482F2F" d="M260.275 267.537L260.594 267.706C260.248 269.393 257.42 271.479 255.974 272.418C251.559 275.287 247 274.777 242.111 273.861L241.311 273.45C243.341 272.11 247.031 272.03 249.494 271.478C253.191 270.648 256.792 268.99 260.275 267.537Z"/>
	<path fill="#EBBEAC" d="M162.442 715.542C162.6 715.719 162.79 715.872 162.917 716.073C163.657 717.248 163.503 717.617 163.098 718.818C159.641 722.031 153.574 723.156 149.115 724.504C148.184 723.916 148.21 724.116 147.786 722.989C150.101 719.256 158.329 717.074 162.442 715.542Z"/>
	<path fill="#F38F85" d="M164.942 723.581C166.134 724.525 166.818 726.553 167.475 727.933Q158.513 730.749 149.725 734.07C149.012 733.983 148.857 733.748 148.295 733.329C148.178 732.597 147.778 731.38 148.104 730.706C149.735 727.335 161.335 724.708 164.942 723.581Z"/>
	<path fill="#F38F85" d="M167.034 797.532L167.454 798.24C167.147 800.713 166.033 802.991 165.096 805.283Q157.65 808.266 150.166 811.153C149.467 809.551 149.606 807.615 149.52 805.876C155.549 803.421 161.354 800.71 167.034 797.532Z"/>
	<path fill="#F38F85" d="M140.989 724.461L142.485 724.624L142.913 725.217C142.717 725.882 142.714 726.027 142.311 726.682C139.812 730.744 122.964 735.018 118.107 736.492C118.068 736.479 118.025 736.473 117.99 736.452C117.078 735.914 116.797 735.822 116.316 734.855L116.673 733.838C120.128 730.453 135.369 726.945 140.989 724.461Z"/>
	<path fill="#DE7976" d="M142.781 820.446C143.616 821.87 143.83 823.801 143.469 825.428C143.254 826.392 143.091 826.55 142.256 827.107C139.384 829.022 135.941 830.47 132.91 832.164C127.873 834.98 123.057 838.124 118.245 841.303C117.511 840.227 117.201 838.238 117.474 836.952C118.085 834.062 139.565 822.368 142.781 820.446Z"/>
	<path fill="#EBBEAC" d="M110.979 745.584C111.181 745.857 111.441 746.167 111.531 746.501C111.715 747.194 111.735 747.97 111.32 748.567C106.975 754.812 72.7525 760.727 64.6563 762.26C64.091 761.275 64.0764 761.164 64.1471 760.029C66.4734 757.537 76.2206 757.349 79.9086 756.342C90.5743 753.429 100.772 749.815 110.979 745.584Z"/>
	<path fill="#F38F85" d="M175.564 758.492C177.049 759.57 177.482 762.762 177.927 764.492C168.575 768.11 159.639 772.495 150.701 777.023L149.874 777.262L149.133 776.752C148.872 775.477 148.512 774.237 148.828 772.942C149.119 771.751 150.51 770.714 151.523 770.122C154.454 768.409 157.949 767.59 161.054 766.205C166.015 763.991 170.901 761.267 175.564 758.492Z"/>
	<path fill="#F38F85" d="M141.558 731.504L142.197 732.068C142.84 734.32 142.572 736.68 142.485 738.998C134.119 741.599 125.64 743.841 117.427 746.909L116.952 746.485C116.15 744.674 116.458 742.454 116.506 740.508C125.177 738.163 133.284 734.958 141.558 731.504Z"/>
	<path fill="#F38F85" d="M145.415 886.37L146.079 886.763C146.904 888.977 146.627 891.565 146.62 893.905C137.766 900.219 128.542 906.048 119.446 912.008C117.734 909.834 118.461 905.206 118.535 902.508C127.96 897.866 136.717 892.232 145.415 886.37Z"/>
	<path fill="#EBBEAC" d="M288.276 265.271C290.037 265.72 293.592 266.068 295 267.14C297.327 268.911 297.654 273.431 297.693 276.042C297.766 280.992 297.076 284.922 293.563 288.507C292.161 288.891 290.37 289.127 288.924 288.915C287.456 288.699 286.053 287.817 285.309 286.517C282.329 281.311 286.685 270.661 288.276 265.271Z"/>
	<path fill="#F38F85" d="M162.16 810.89L162.987 811.184C163.656 813.429 152.713 845.436 150.999 850.213C149.715 847.474 149.827 822.363 149.505 817.018L162.16 810.89Z"/>
	<path fill="#482F2F" d="M269.419 244.843C271.346 245.989 273.014 248.994 274.363 250.812C263.657 261.43 254.347 267.534 239.465 270.33C237.831 269.93 236.388 269.463 235.246 268.171C235.908 267.213 246.044 263.644 248.349 262.283C256.221 257.634 262.785 251.052 269.419 244.843Z"/>
	<path fill="#F38F85" d="M110.299 753.467C110.719 753.463 111.151 753.673 111.549 753.805C112.246 755.563 111.807 757.704 111.651 759.554C99.0246 764.648 78.3332 768.89 64.6334 772.24L63.3704 772.236C63.2877 772.124 63.1881 772.023 63.1221 771.9C62.5137 770.771 62.6315 768.599 63.0525 767.428C64.1592 764.349 73.6468 764.588 76.7432 763.967C88.3032 761.65 99.3443 757.752 110.299 753.467Z"/>
	<path fill="#DE7976" d="M109.62 847.972C110.704 847.827 110.153 847.756 111.253 848.302C111.53 849.855 111.617 850.651 110.952 852.161C106.061 857.221 66.2538 867.735 58.1143 869.941C57.3014 870.095 57.7939 870.063 56.6373 869.839C55.7319 868.345 55.9774 866.349 55.9809 864.643Q69.6821 861.478 83.1104 857.305Q96.5387 853.131 109.62 847.972Z"/>
	<path fill="#ECE9E0" d="M147.731 671.407C148.651 672.281 149.058 673.573 149.463 674.75C151.408 680.417 152.791 686.314 154.589 692.038C156.66 698.63 159.162 705.104 161.364 711.657C160.143 712.618 158.66 713.011 157.211 713.516L148.172 717.103C147.819 701.881 147.861 686.633 147.731 671.407Z"/>
	<path fill="#482F2F" d="M263.248 232.253C265.769 234.269 267.113 239.849 268.233 242.894C257.275 251.853 248.845 261.368 235.316 266.512C235.182 266.506 235.047 266.51 234.913 266.494C233.526 266.331 232.014 265.804 231.134 264.741C233.243 261.814 238.851 259.295 241.797 256.851C250.259 249.832 257.241 241.411 263.248 232.253Z"/>
	<path fill="#EBBEAC" d="M284.827 259.954C283.866 269.486 276.893 278.523 280.117 288.548C280.801 290.676 282.135 292.345 284.169 293.304C287.302 294.783 291.472 294.746 294.698 293.587C297.959 292.415 300.763 289.999 302.208 286.827C305.337 279.958 301.992 272.807 299.803 266.261C299.291 264.729 298.852 263.455 299.57 261.96L300.656 262.252C302.458 263.921 303.236 266.065 304.231 268.262C304.876 269.968 305.481 271.743 305.928 273.514C307.437 279.494 307.256 286.396 303.882 291.719Q303.439 292.424 302.929 293.08Q302.418 293.737 301.844 294.339Q301.27 294.942 300.639 295.484Q300.007 296.026 299.325 296.502Q298.643 296.978 297.916 297.384Q297.19 297.79 296.427 298.121Q295.663 298.451 294.871 298.704Q294.078 298.958 293.264 299.13Q292.525 299.286 291.774 299.369Q291.024 299.451 290.268 299.46Q289.513 299.468 288.761 299.402Q288.008 299.336 287.266 299.197Q286.524 299.058 285.799 298.846Q285.074 298.634 284.373 298.353Q283.672 298.071 283.003 297.722Q282.333 297.372 281.701 296.959C278.398 294.759 276.25 291.364 275.573 287.468C273.96 278.189 279.613 267.264 284.827 259.954Z"/>
	<path fill="#FACA91" d="M111.081 914.506C111.644 914.894 111.58 914.717 111.782 915.405C112.099 916.481 111.991 917.564 111.421 918.542C108.253 923.981 63.8649 936.96 55.1188 939.657L54.4201 938.943C53.7065 936.701 54.0509 934.36 54.1844 932.043C73.7777 927.509 92.3365 921.774 111.081 914.506Z"/>
	<path fill="#ECE9E0" d="M174.85 771.97C174.939 772.045 175.053 772.098 175.117 772.194C176.912 774.897 171.076 787.904 169.845 791.094Q159.764 795.69 149.566 800.021C148.309 794.547 148.724 788.394 148.718 782.794C157.623 779.642 166.227 775.812 174.85 771.97Z"/>
	<path fill="#482F2F" d="M261.341 208.85C262.252 212.125 262.132 223.935 262.94 229.213C251.939 241.082 243.751 254.022 228.89 261.578C228.282 261.324 228.128 260.928 227.739 260.411C228.037 257.821 236.629 249.575 238.685 246.638C247.126 234.584 252.941 220.875 261.341 208.85Z"/>
	<path fill="#ECE9E0" d="M144.484 863.494C146.974 866.26 146.022 876.668 146.018 880.496C136.579 884.65 128.282 890.613 119.409 895.79L119.136 895.669C117.577 893.618 117.999 882.165 117.987 878.904C127.107 874.346 135.725 868.705 144.484 863.494Z"/>
	<path fill="#DE7976" d="M168.057 731.524C170.984 733.433 175.047 752.769 176.06 757.133C168.992 759.075 162.231 762.138 155.496 764.992L148.521 767.979L148.44 738.174C155.233 736.64 161.607 734.089 168.057 731.524Z"/>
	<path fill="#DE7976" d="M142.585 830.375L143.041 830.487C145.361 833.703 144.17 852.209 144.097 857.275Q137.482 860.737 131.173 864.728Q124.863 868.719 118.901 873.213L118.53 873.056C116.651 868.785 117.487 852.485 117.447 846.87C125.262 840.557 134.039 835.613 142.585 830.375Z"/>
	<path fill="#ECE9E0" d="M111.098 889.024L111.581 889.48C113.407 894.906 112.24 903.255 112.12 908.974C96.7727 915.673 72.3293 922.005 55.7026 926.257L54.8331 926.055C53.0965 921.497 54.9401 910.934 55.6481 906C74.559 901.601 92.8939 895.745 111.098 889.024Z"/>
	<path fill="#DE7976" d="M400.972 791.354C403.097 788.734 405.185 786.068 407.387 783.514C398.142 833.779 388.795 883.888 373.382 932.723Q363.506 963.13 352.095 992.995C348.11 1003.36 343.655 1013.5 340.023 1024L333.755 1024C340.186 1004.63 348.674 986.065 355.533 966.853Q366.816 935.384 376.02 903.245Q385.225 871.106 392.312 838.435C395.669 822.854 399.87 807.288 400.972 791.354Z"/>
	<path fill="#DE7976" d="M321.01 375.659C326.742 380.512 331.284 388.764 335.762 394.819Q353.32 418.185 370.198 442.047C377.317 452.162 383.461 462.962 391.772 472.181C390.482 480.908 389.739 489.439 389.486 498.261L388.936 498.686C386.173 493.915 384.067 488.611 381.54 483.691Q374.188 469.492 365.997 455.761C351.438 431.269 334.459 408.735 317.655 385.785C318.657 382.363 319.812 379.017 321.01 375.659Z"/>
	<path fill="#FACA91" d="M339.455 651.697C339.485 651.708 339.517 651.714 339.545 651.73C341.895 653.102 343.982 661.514 344.939 664.352C336.872 665.722 328.712 665.938 320.661 667.654C290.747 674.031 263.991 690.617 239.132 707.742C236.698 704.346 234.579 700.715 232.392 697.156C267.181 673.828 297.689 657.928 339.455 651.697Z"/>
	<path fill="#FACA91" d="M184.257 770.256C217.992 788.049 256.314 790.342 293.711 790.415L286.766 798.971L282.633 803.423C250.837 803.569 207.339 800.671 180.847 781.438L184.257 770.256Z"/>
	<path fill="#DE7976" d="M109.921 856.491L110.642 856.548C112.651 859.074 111.633 879.041 111.571 883.678C93.3353 889.925 75.9079 896.085 57.1639 900.921L56.3766 900.801C54.5344 897.249 56.1624 878.144 56.4189 873.199C74.3787 871.183 93.4483 863.703 109.921 856.491Z"/>
	<path fill="#DE7976" d="M339.138 826.084L347.037 828.818C332.205 857.283 320.524 887.253 305.675 915.766Q295.202 936.054 283.16 955.453Q271.118 974.852 257.583 993.24C249.791 1003.74 241.162 1013.61 233.219 1024L221.3 1024Q237.099 1005.25 251.853 985.661Q258.62 976.482 265.074 967.081Q271.528 957.679 277.661 948.066Q283.795 938.452 289.601 928.637Q295.407 918.822 300.88 908.818Q306.352 898.813 311.484 888.63Q316.617 878.446 321.403 868.096Q326.189 857.745 330.624 847.239Q335.059 836.733 339.138 826.084Z"/>
	<path fill="#ECE9E0" d="M140.227 743.469C140.986 743.456 140.555 743.374 141.429 744.006C142.59 750.169 141.343 762.647 141.388 769.563Q141.745 793.002 142.795 816.421Q130.684 823.377 118.769 830.663L118.373 830.737C116.212 828.314 116.504 756.136 116.497 750.051C124.66 748.414 132.366 746.151 140.227 743.469Z"/>
	<path fill="#ECE9E0" d="M345.674 1024Q354.249 1003.12 361.926 981.895Q369.602 960.67 376.366 939.136Q383.129 917.602 388.967 895.799Q394.806 873.995 399.708 851.963C403.932 833.007 408.35 813.253 410.249 793.933C411.998 799.278 408.913 811.655 408.145 817.622C400.888 873.94 390.398 929.514 380.709 985.425C378.489 998.233 376.985 1011.26 374.528 1024L345.674 1024Z"/>
	<path fill="#DE7976" d="M145.275 432.871C145.592 435.586 138.821 458.255 137.639 463.605Q134.3 479.373 132.435 495.381Q130.569 511.39 130.192 527.503Q129.69 550.321 131.058 573.103Q132.427 595.885 135.656 618.479C137.167 629.032 140.627 639.172 141.581 649.841C142.522 660.351 141.952 670.891 141.757 681.419C141.52 694.217 141.569 707.197 142.398 719.974Q134.543 722.964 126.636 725.815L116.993 729.526Q116.433 685.099 118.21 640.703Q119.986 596.308 124.094 552.067C127.846 511.821 131.216 471.063 145.275 432.871Z"/>
	<path fill="#DE7976" d="M398.833 793.383C396.041 813.816 390.742 833.92 385.758 853.904Q378.457 884.339 369.569 914.349Q360.68 944.36 350.229 973.862C344.273 990.767 336.297 1006.87 330.905 1024L301.552 1024C319.632 991.675 334.97 961.594 348.444 927.027C357.881 902.818 366.367 878.053 374.904 853.505C381.731 833.874 386.181 810.254 398.833 793.383Z"/>
	<path fill="#B19C93" d="M276.689 254.737C278.251 255.876 279.668 257.225 281.117 258.503C276.755 265.189 272.783 272.472 271.238 280.386C270.064 286.395 270.656 293.091 274.321 298.18C277.159 302.118 281.627 304.588 286.404 305.251C293.925 306.293 299.82 302.837 305.501 298.439C314.698 313.686 325.083 325.193 339.527 335.603C329.857 347.767 321.535 360.08 314.603 374.025L312.406 379.631C290.106 352.834 267.473 328.444 238.912 308.259C250.387 289.473 264.571 273.017 276.689 254.737Z"/>
	<path fill="#ECE9E0" d="M110.583 763.057L111.093 763.449C111.743 764.864 111.615 766.381 111.629 767.906C111.71 776.519 111.156 785.163 111.114 793.785Q111.13 818.388 111.516 842.988C93.9698 850.731 75.5858 855.395 57.297 860.98L56.828 860.868C55.9678 859.76 55.9784 859.038 55.9426 857.622C55.7235 848.951 57.0952 839.874 57.7553 831.219Q59.8304 803.747 62.2224 776.301C78.6712 772.672 94.5599 768.254 110.583 763.057Z"/>
	<path fill="#B19C93" d="M504.043 413.536C505.31 413.811 506.057 413.683 506.769 414.853C508.973 418.472 507.599 427.036 507.556 431.361C507.187 468.814 503.26 504.835 492.183 540.734C489.112 550.689 481.041 559.587 479.672 569.808C478.094 581.594 480.208 595.164 481.024 607.081Q482.52 629.779 484.898 652.402C488.266 686.298 493.072 723.476 485.012 757.013C481.409 772.005 475.552 782.407 462.283 790.582C461.922 790.375 461.407 790.321 461.201 789.959C459.595 787.129 453.982 707.704 452.047 696.092C451.535 693.023 450.419 690.2 449.277 687.319C456.82 657.494 463.754 630.763 468.214 600.082C469.975 587.966 471.566 575.971 471.478 563.708C471.602 563.589 471.728 563.472 471.85 563.35C500.39 534.829 504.283 452.11 504.043 413.536Z"/>
	<path fill="#ECE9E0" d="M179.029 785.686C183.86 789.203 188.706 792.594 194.094 795.217C219.068 807.381 250.679 808.97 278.006 808.919C257.181 829.556 235.833 848.464 212.675 866.465Q195.741 879.674 177.867 891.58C170.051 896.694 161.898 901.254 154.104 906.411C153.439 894.774 151.407 880.42 152.59 869.019C153.447 860.767 159.943 844.713 162.72 836.266C168.255 819.433 173.297 802.456 179.029 785.686Z"/>
	<path fill="#ECE9E0" d="M350.946 829.778C364.674 826.1 374.954 819.274 384.719 809.027Q374.065 836.993 364.016 865.182C354.297 892.9 345.038 920.85 333.448 947.861Q323.629 970.272 312.127 991.869C306.425 1002.51 300.064 1012.85 295.391 1024L238.89 1024C250.044 1009.94 261.491 996.19 271.684 981.391C303.911 934.6 329.075 882.133 350.946 829.778Z"/>
	<path fill="#ECE9E0" d="M118.528 917.389C127.968 911.055 137.252 904.461 146.877 898.41Q149.341 937.511 150.851 976.661C151.463 989.967 151.001 1003.99 153.324 1017.12L155.664 1018.05C156.299 1020.09 157.206 1022.04 158.045 1024L153.522 1024L47.4063 1024Q47.9353 1016.64 48.1112 1009.27C53.4207 992.352 53.4011 963.135 53.716 944.906Q71.9741 939.47 89.8981 933.018C97.107 930.431 104.305 927.288 111.604 925.026C112.417 936.135 113.158 992.556 118.157 996.928C118.258 997.017 118.381 997.076 118.493 997.149C121.338 990.99 118.559 928.627 118.528 917.389Z"/>
	<path fill="#F38F85" d="M153.324 1017.12L155.664 1018.05C156.299 1020.09 157.206 1022.04 158.045 1024L153.522 1024L153.324 1017.12Z"/>
	<path fill="#DE7976" d="M380.668 1024C383.604 999.303 388.65 974.975 393.304 950.563C398.946 920.969 404.269 891.552 408.368 861.697C410.923 843.08 413.373 824.503 414.548 805.736C414.852 800.878 415.162 796.034 415.195 791.165C415.239 784.489 414.591 777.07 416.125 770.533C418.331 761.127 425.014 752.708 428.921 743.929C435.852 728.356 441.091 712.227 445.662 695.829C447.676 704.805 447.652 714.365 448.343 723.527L451.794 764.664C455.15 803.058 459.317 841.434 461.498 879.919C463.083 907.903 463.195 935.924 463.428 963.944C461.824 964.918 460.508 966.131 459.336 967.595C456.98 970.538 441.032 993.971 440.35 995.977L440.879 996.377C445.099 994.989 451.721 983.647 454.374 979.849L459.37 983.925C457.676 984.553 454.163 985.315 453.189 986.735L454.506 988.5C454.45 991.603 450.155 990.622 448.683 993.012C448.883 993.946 449.116 994.788 449.048 995.75C448.901 997.809 445.721 996.549 444.486 997.662C444.566 997.829 444.65 997.995 444.725 998.164C446.144 1001.38 441.696 1002.12 440.137 1004.22C439.306 1005.34 438.79 1007.06 438.288 1008.37C449.071 1001.81 455.885 991.579 462.51 981.146C462.593 992.837 460.04 1005.1 461.537 1016.62L461.506 1024L380.668 1024Z"/>
	<path d="M451.826 899.343C452.423 899.944 452.492 900.085 452.418 900.966C451.84 907.821 435.34 924.429 429.81 929.697C429.381 928.956 429.145 928.274 428.903 927.454C431.442 923.184 436.016 919.316 439.274 915.483C443.677 910.304 447.718 904.76 451.826 899.343Z"/>
	<path d="M445.495 950.729L446.251 951.116L446.569 952.188C446.169 953.879 445.592 955.118 444.662 956.591C440.67 962.912 428.686 976.677 421.293 978.317C422.001 975.672 423.867 974.476 425.711 972.61L425.342 971.11L426.05 970.361C427.112 970.215 428.656 970.147 429.58 969.587C430.818 968.836 431.55 967.209 432.003 965.92C432.344 964.946 432.633 964.182 433.224 963.317C433.575 963.396 434.07 963.518 434.418 963.541C435.692 963.628 435.763 963.439 436.601 962.576C436.608 961.862 436.596 961.176 436.539 960.463L436.48 959.813C441.361 958.197 442.772 954.727 445.495 950.729Z"/>
	<path d="M454.111 905.602C454.458 905.749 455.041 905.974 455.332 906.193C456.16 906.814 456.293 907.383 456.277 908.367C456.164 915.363 444.495 928.947 439.72 933.926C436.451 937.334 427.179 947.599 422.846 947.701L422.728 946.636C425.703 943.407 433.47 938.228 434.75 934.286C434.085 933.421 433.661 932.859 433.267 931.827L433.939 931.548L435.656 932.615C436.297 932.624 436.739 932.544 437.299 932.214C440.374 930.402 443.388 926.702 444.419 923.286C444.172 922.344 444.094 921.701 444.198 920.731L445.041 920.21L446.462 921.248C446.643 921.115 446.828 920.989 447.004 920.85C451.168 917.579 453.478 910.61 454.111 905.602Z"/>
	<path d="M449.074 840.197L450.019 840.747C451.425 843.5 451.021 846.676 450.149 849.537C447.07 859.642 435.953 875.585 426.531 880.384C429.087 874.921 433.4 871.954 436.706 867.185C437.742 865.69 437.358 865.147 437.09 863.465L437.673 862.948C438.423 862.859 439.525 862.833 440.208 862.534C441.338 862.038 441.39 861.555 441.7 860.491C441.259 859.664 440.997 859.157 440.822 858.223C443.009 856.773 443.957 856.927 445.534 854.67L446.164 852.731C446.031 850.863 444.72 849.719 443.557 848.365C440.106 853.541 433.825 864.313 427.742 866.114L427.504 865.446C428.098 863.953 444.932 842.011 445.93 841.424C447.111 843.209 444.796 847.045 445.72 849.429L446.611 849.36C448.888 846.655 448.795 843.567 449.074 840.197Z"/>
	<path d="M446.185 736.364C445.164 741.142 443.529 745.649 441.735 750.184L443.943 749.478C444.488 747.788 444.9 745.442 446.329 744.306C447.242 745.186 447.238 746.123 447.263 747.353C447.464 757.236 442.614 765.392 436.543 772.717C435.598 771.525 434.047 770.062 433.831 768.584C435.144 768.394 435.963 768.562 436.89 767.551C436.786 766.282 436.557 765.861 435.734 764.896C433.856 764.837 432.665 766.156 431.252 767.309C430.769 765 441.906 742.676 444.092 739.237C444.729 738.235 445.448 737.294 446.185 736.364Z"/>
	<path fill="#DE7976" d="M437.606 758.897C439.008 760.136 440.261 760.058 442.029 760.15C441.134 760.275 440.476 760.421 439.661 760.814Q439.67 762.888 439.722 764.961L439.007 765.532C438.015 765.469 437.436 765.473 436.585 764.892C435.983 764.481 435.737 764.029 435.695 763.279C435.6 761.579 436.683 760.207 437.606 758.897Z"/>
	<path fill="#F38F85" d="M443.943 749.478C444.414 751.36 444.422 751.69 443.555 753.448C442.682 755.216 442.557 756.561 442.872 758.482C442.613 759.047 442.398 759.648 442.029 760.15C440.261 760.058 439.008 760.136 437.606 758.897Q439.547 754.482 441.735 750.184L443.943 749.478Z"/>
	<path d="M435.369 812.581L435.745 811.638C436.72 810.84 437.489 810.403 438.67 809.963L439.329 810.528C439.223 812.509 438.847 814.243 438.197 816.123C436.798 820.166 428.962 836.648 425.249 838.414L424.517 837.988L424.358 836.979Q424.735 836.509 425.1 836.031C427.43 832.975 424.999 833.894 424.657 831.299C425.672 830.68 426.706 830.221 427.789 829.738L428.081 828.759L426.459 826.693L426.693 825.852C428.002 825.407 428.453 825.664 429.771 825.99C430.685 825.352 430.948 824.686 431.415 823.695C431.041 822.069 429.453 821.365 428.134 820.39C426.505 822.891 424.944 826.545 422.203 828.004L421.796 827.337C422.454 822.512 429.787 809.989 432.67 805.48C433.652 803.943 435.283 801.046 437.125 800.636C437.17 800.786 437.236 800.93 437.261 801.084C437.709 803.804 435.063 807.723 433.818 810.028C434.826 810.858 435.031 811.329 435.369 812.581Z"/>
	<path fill="#F38F85" d="M433.818 810.028C434.826 810.858 435.031 811.329 435.369 812.581C435.686 815.031 435.043 817.724 433.555 819.73C433.061 818.964 432.702 818.489 432.032 817.849C431.301 818.74 430.729 819.456 429.786 820.139C429.585 820.285 429.371 820.413 429.163 820.55L430.237 819.853L429.254 819.101C428.959 816.904 432.641 811.879 433.818 810.028Z"/>
	<path fill="#DE7976" d="M299.023 794.798C310.838 806.741 322.412 816.875 337.064 825.302C325.59 849.788 314.845 874.522 302.381 898.55Q298.002 907.015 293.364 915.341Q288.727 923.667 283.834 931.846Q278.941 940.025 273.798 948.049Q268.655 956.073 263.267 963.934Q257.878 971.795 252.25 979.486Q246.621 987.177 240.758 994.691Q234.895 1002.2 228.802 1009.53Q222.71 1016.86 216.394 1024L158.045 1024C157.206 1022.04 156.299 1020.09 155.664 1018.05C156.831 1017.29 157.962 1016.89 158.375 1015.45C160.007 1009.76 157.075 968.866 156.696 960.524C155.979 944.722 156.028 928.834 154.465 913.08C175.191 902.502 193.432 889.103 211.868 875.011C243.431 850.888 273.359 825.267 299.023 794.798Z"/>
	<path d="M179.62 994.787C179.213 995.305 179.514 995.053 178.529 995.226C176.705 987.597 185.429 966.817 189.463 960.147C190.592 958.28 192.661 954.776 194.771 954.269C194.922 955.78 194.369 956.487 193.731 957.843C196.353 962.797 193.655 972.861 192.09 977.989C190.652 982.698 186.597 995.364 181.878 997.564C181.459 997.76 181.228 997.735 180.81 997.75C180.724 996.365 181.086 995.873 181.688 994.685L179.62 994.787Z"/>
	<path fill="#F38F85" d="M179.62 994.787C179.897 992.482 179.868 989.823 181.925 988.329C182.108 988.197 182.311 988.095 182.504 987.978L183.47 988.289C183.855 989.514 184.082 990.287 183.531 991.521C183.043 992.614 182.319 993.667 181.688 994.685L179.62 994.787Z"/>
	<path fill="#F38F85" d="M184.622 976.311C185.915 977.578 187.063 978.998 188.247 980.367C187.646 982.499 186.815 984.439 185.926 986.459C184.223 985.788 183.369 985.159 182.572 983.494C182.454 980.985 183.71 978.608 184.622 976.311Z"/>
	<path fill="#F38F85" d="M186.37 976.357C186.007 975.397 185.639 974.4 185.683 973.358C185.917 967.867 189.914 961.668 193.731 957.843C193.652 959.115 193.501 960.352 193.307 961.611C192.76 965.174 191.916 974.666 188.734 976.627C188.004 977.077 187.144 976.562 186.37 976.357Z"/>
	<path d="M195.905 901.577L196.768 901.845C198.235 906.765 190.747 923.962 188.314 928.498C186.012 932.79 182.917 939.471 178.648 941.986L177.479 942.039C176.723 941.209 176.911 941.289 176.891 940.247C178.253 938.281 180.183 937.124 181.267 935.017C179.545 933.797 179.261 933.591 178.72 931.541L178.653 931.596L178.751 931.566L177.128 931.646L177.196 931.703C176.543 928.177 178.031 924.46 179.354 921.216C182.183 914.279 188.816 904.629 195.905 901.577Z"/>
	<path fill="#F38F85" d="M183.454 918.383C184.608 919.52 186.116 920.857 186.672 922.428C187.229 923.998 186.854 924.831 186.279 926.283C185.001 925.769 183.415 924.804 182.762 923.541C181.824 921.73 182.723 920.06 183.454 918.383Z"/>
	<path fill="#F38F85" d="M180.853 924.219L185.389 927.357C183.997 929.867 182.427 932.397 181.267 935.017C179.545 933.797 179.261 933.591 178.72 931.541C179.396 929.101 179.995 926.602 180.853 924.219Z"/>
	<path fill="#F38F85" d="M195.905 901.577C196.423 906.564 190.226 915.5 188.905 920.987L188.321 921.321L187.085 920.215L184.238 916.603C187.877 911.306 191.483 906.267 195.905 901.577Z"/>
	<path d="M299.751 811.377L300.466 812.501C300.798 817.394 299.634 822.643 298.346 827.341C296.754 833.142 290.142 852.583 285.206 855.413C284.595 853.562 285.123 851.315 285.036 849.33C284.15 848.744 284.137 848.71 283.165 848.672L282.411 850.115C281.625 853.281 280.673 856.172 279.398 859.175C279.233 840.645 287.778 824.898 299.751 811.377Z"/>
	<path fill="#F38F85" d="M286.342 839.17C287.541 839.588 288.168 839.809 288.974 840.812C289.26 843.114 287.697 846.139 286.919 848.375C286.716 848.312 286.507 848.263 286.308 848.186C284.917 847.643 284.783 847.539 284.14 846.257C284.073 843.765 285.383 841.427 286.342 839.17Z"/>
	<path fill="#F38F85" d="M296.475 818.403C296.83 820.709 296.177 824.237 295.083 826.32C294.136 828.12 293.431 828.45 291.492 828.971C291.217 828.332 291.098 827.679 290.941 827.003C291.701 823.385 294.091 821.07 296.475 818.403Z"/>
	<path fill="#F38F85" d="M289.975 828.746C291.106 829.115 292.116 829.301 292.823 830.337C292.854 833.199 291.355 836.398 290.733 839.283C289.369 838.68 288.285 838.322 287.461 836.996C286.948 834.263 288.859 831.217 289.975 828.746Z"/>
	<path d="M261.554 879.783C262.942 881.159 263.51 882.633 263.955 884.528C266.683 896.153 262.144 926.11 255.251 936.13C254.551 937.147 254.957 936.846 253.766 937.093L253.604 935.833C254.279 933.789 255.47 931.103 255.427 928.937C255.403 927.705 255.273 927.587 254.437 926.787C253.417 926.806 252.396 926.879 251.402 926.608C250.731 926.424 250.685 926.017 250.343 925.459C249.128 914.414 256.954 890.329 261.554 879.783Z"/>
	<path fill="#F38F85" d="M254.707 915.22L258.529 917.592C257.836 920.504 256.93 923.385 256.101 926.262C255.206 925.926 254.359 925.736 253.737 924.967C252.727 923.718 254.441 917.06 254.707 915.22Z"/>
	<path fill="#F38F85" d="M257.336 903.949C258.396 904.175 259.104 904.524 260.034 905.075C260.75 906.157 260.975 906.766 261.094 908.059L260.379 908.767L258.498 908.538C257.989 909.324 259.756 911.223 259.971 912.205C260.111 912.845 259.816 914.181 259.761 914.883L259.096 915.301C257.493 915.397 256.035 914.326 254.663 913.59C255.367 910.437 255.857 906.814 257.336 903.949Z"/>
	<path fill="#F38F85" d="M261.317 886.381C261.458 886.529 261.638 886.648 261.739 886.826C263.398 889.743 262.805 898.464 261.873 901.494C261.429 902.94 260.953 903.161 259.63 903.776C259.015 903.403 258.319 903.154 257.96 902.498C256.074 899.049 260.073 890.016 261.317 886.381Z"/>
	<path d="M229.421 933.884C229.814 934.283 230.069 934.774 230.284 935.289C234.307 944.949 230.648 962.504 227.282 972.007C226.011 975.595 221.038 988.244 217.74 989.8L216.622 989.248C217.24 986.869 218.719 985 219.566 982.741C221.186 978.414 216.928 979.776 215.532 976.967C215.847 966.294 223.07 942.732 229.421 933.884Z"/>
	<path fill="#F38F85" d="M220.632 965.026C222.268 965.542 223.623 965.912 224.936 967.047C225.488 968.571 225.373 968.809 224.998 970.409C223.697 970.078 222.502 969.796 221.585 968.705C220.634 967.573 220.645 966.404 220.632 965.026Z"/>
	<path fill="#F38F85" d="M219.173 969.701L223.89 972.384L221.632 977.957C220.231 977.687 219.134 977.488 217.914 976.684C217.11 974.45 218.438 971.912 219.173 969.701Z"/>
	<path fill="#F38F85" d="M228.348 939.814L229.191 940.776C231.212 948.435 228.521 958.405 226.681 965.88C225.039 965.08 223.191 964.396 222.04 962.931C221.901 961.452 222.224 961.407 223.149 960.213L224.148 959.872C223.433 959.15 222.764 958.147 222.464 957.157C222.043 955.771 222.155 955.609 222.871 954.469C224.56 953.794 225.658 955.893 227.611 956.059L228.292 955.272C227.285 953.395 224.866 953.695 224.015 951.644C224.369 947.453 226.473 943.507 228.348 939.814Z"/>
	<path d="M211.081 914.458C210.696 916.145 210.465 917.767 209.406 919.182L208.66 919.238C207.669 917.044 208.596 913.852 209.396 911.697C216.823 891.688 228.673 876.11 244.273 861.734C242.181 868.383 240.088 875.033 237.208 881.394C232.583 891.608 216.977 919.212 208.905 926.046L208.558 925.606C209.669 921.702 212.077 919.145 213.591 915.538C213.601 915.513 213.629 915.5 213.648 915.481L211.081 914.458Z"/>
	<path fill="#F38F85" d="M211.081 914.458C212.094 911.509 212.916 908.332 215.714 906.571L216.679 906.785C217.203 907.783 217.496 908.301 217.38 909.441C216.471 910.325 215.417 910.39 214.223 910.603C214.419 911.798 214.709 912.403 215.404 913.391C215.01 914.452 214.536 914.805 213.648 915.481L211.081 914.458Z"/>
	<path fill="#F38F85" d="M222.52 891.566C224.011 892.357 225.441 893.33 226.878 894.218L224.248 899.148C222.809 897.968 221.472 896.612 220.107 895.345L222.52 891.566Z"/>
	<path fill="#F38F85" d="M219.204 896.752C220.743 897.798 222.103 899.124 223.498 900.354L219.439 906.499C219.161 906.621 218.59 906.617 218.282 906.647L218.158 906.77L216.909 905.989C215.81 903.213 218.115 899.339 219.204 896.752Z"/>
	<path fill="#F38F85" d="M238.763 869.397C239.322 871.78 237.924 875.116 236.8 877.269C235.589 879.588 234.727 881.403 232.19 882.221C231.589 881.249 231.312 880.638 231.171 879.501C232.32 875.292 235.805 872.426 238.763 869.397Z"/>
	<path fill="#F38F85" d="M229.124 881.291C230.406 881.829 231.163 882.198 232.172 883.201C232.523 884.42 232.596 884.361 232.015 885.474C230.713 886.104 229.937 885.88 228.513 885.721C228.391 885.708 228.269 885.689 228.148 885.673C228.41 887.217 229.794 886.604 230.79 887.565C230.575 889.23 229.872 890.305 229.016 891.699L228.186 892.441C226.307 892.159 224.695 890.715 223.171 889.643C225.071 886.786 226.93 883.935 229.124 881.291Z"/>
	<path fill="#B19C93" d="M450.182 138.164C450.999 138.075 451.465 138.196 452.254 138.383C452.938 139.015 453.526 139.581 453.98 140.406C455.721 143.569 456.274 147.763 456.7 151.312C459.199 172.144 449.345 173.406 448.561 187.899C448.106 196.312 452.945 204.689 450.992 213.029C449.317 220.185 444.078 225.773 442.263 232.913C438.638 247.168 445.394 259.395 452.359 271.255C454.372 274.682 456.569 278.932 455.317 283.012C454.751 284.856 453.29 286.254 451.544 287.014C447.287 288.867 442.584 285.845 438.281 285.621C434.061 285.402 428.612 287.403 424.699 285.56C419.258 282.999 422.148 275.965 420.743 271.657L419.61 271.523C418.931 272.055 418.643 272.4 418.304 273.219C417.168 275.965 416.941 283.144 418.358 285.875C420.329 289.672 423.616 290.814 427.426 291.983C426.798 296.719 427.136 301.015 427.698 305.732C424.565 306.488 421.672 307.626 418.688 308.821C412.411 305.818 406.618 304.127 399.852 302.683C400.66 301.446 401.82 299.987 402.062 298.509C402.195 297.697 402.079 297.88 401.49 297.195C400.869 297.269 400.755 297.246 400.104 297.526C398.033 298.419 396.277 301.266 395.601 303.307C395.095 304.838 395.023 305.921 395.738 307.361L396.852 307.516C398.557 306.491 398.855 305.549 399.818 303.839L402.959 307.18C407.928 308.181 412.524 309.196 417.116 311.4C418.111 312.949 419.831 315.171 419.707 317.092C419.658 317.84 419.288 317.898 418.757 318.329C415.6 318.696 412.073 317.559 408.935 316.991C410.45 318.706 412.143 320.134 413.886 321.605C408.94 329.858 409.695 337.898 405.693 344.848C403.945 347.884 401.242 349.688 397.842 350.424C382.952 353.646 358.857 340.656 346.265 332.722C337.224 326.687 328.726 319.958 321.375 311.917C316.509 306.594 312.143 300.821 307.323 295.445C318.159 278.259 305.684 268.071 302.213 251.613L297.449 255.701C296.17 253.164 294.509 249.067 291.722 247.89C291.024 247.595 290.251 247.547 289.552 247.826C287.276 248.734 286.418 251.232 285.456 253.296C276.585 244.888 270.451 234.699 268.714 222.475C267.305 212.56 268.431 202.08 274.654 193.908C277.859 189.699 282.118 186.054 287.556 185.458C304.654 183.585 303.583 202.348 313.277 210.081C316.51 212.661 320.44 213.397 324.487 212.906C341.551 210.838 347.838 196.011 362.177 189.754C374.274 184.477 387.503 184.953 398.871 177.396C416.632 165.589 427.265 141.098 450.182 138.164Z"/>
	<path d="M425.144 226.211C428.188 228.777 425.094 234.846 425.468 238.334C425.874 242.108 428.316 246.087 429.975 249.453L423.268 244.971C421.019 246.239 418.812 247.472 416.426 248.473L415.483 248.087C415.215 246.846 415.821 246.109 416.322 244.976C412.995 242.739 406.177 240.676 401.774 238.081C398.632 235.934 394.402 233.401 393.365 229.53L393.98 228.966C398.269 230.729 402.139 233.317 406.194 235.542C411.117 238.243 416.069 240.237 421.422 241.916C421.703 236.207 422.127 231.249 425.144 226.211Z"/>
	<path d="M410.706 198.684C413.016 198.368 415.582 198.392 417.91 198.495C424.409 198.782 432.354 200.921 436.691 206.046C437.753 207.301 438.142 208.25 437.98 209.874L436.875 210.601C433.509 210.923 430.985 209.085 428.159 207.512C416.527 203.477 406.005 206.3 394.348 204.019C399.55 200.347 404.561 199.497 410.706 198.684Z"/>
	<path d="M285.485 193.96C287.223 193.945 289.173 193.816 290.861 194.261C295.33 195.439 298.806 199.617 300.956 203.476C303.41 207.881 305.272 214.026 303.667 218.972C301.552 225.489 296.454 221.698 292.245 224.267C290.78 225.161 290.027 226.529 289.59 228.144C288.85 230.879 288.496 237.939 290.313 240.153C291.168 241.196 292.222 241.488 293.514 241.495C294.826 241.503 295.503 241.421 296.397 240.465C296.011 237.724 293.402 236.077 292.6 233.548C292.163 232.166 292.375 231.884 292.996 230.688C293.731 230.302 294.178 229.869 295.04 229.97C296.945 230.193 298.143 231.628 299.363 232.959L299.759 233.398C300.646 235.254 301.266 237.286 301.969 239.221C300.94 241.525 299.838 244.169 297.681 245.656C294.848 247.61 291.633 246.907 288.487 246.385C286.159 242.512 284.521 238.845 284.205 234.266C283.908 229.955 284.781 225.241 287.807 221.98C291.23 218.291 295.086 217.942 299.79 217.765C299.231 215.09 298.684 212.404 298.028 209.751C296.681 204.298 294.801 201.151 289.796 198.575C288.824 198.075 287.37 197.552 286.545 196.86C285.386 195.889 285.57 195.383 285.485 193.96Z"/>
	<path fill="#DE7976" d="M219.006 307.593C220.042 307.511 221.064 307.467 222.104 307.52C232.725 308.054 246.72 320.571 254.624 327.391C292.601 360.156 335.229 416.402 360.761 460.155C368.466 473.358 374.848 487.256 382.315 500.58C391.091 516.243 401.294 529.845 413.234 543.209C407.887 572.903 394.984 596.973 379.421 622.339C374.206 603.033 367.534 584.473 360.319 565.838C342.709 520.352 321.168 475.873 292.863 435.987C274.183 409.664 250.393 380.359 216.669 374.791C202.659 372.479 189.682 374.8 178.077 383.169C157.61 397.929 140.472 429.942 132.945 453.965C129.162 466.041 126.961 478.426 124.959 490.899Q118.853 532.089 115.646 573.605C111.449 629.745 111.353 685.783 111.583 742.032C96.3291 748.377 80.5029 752.774 64.389 756.356Q66.2849 730.15 69.0777 704.025Q71.8704 677.9 75.5566 651.885Q79.2429 625.871 83.8183 599.998Q88.3938 574.126 93.853 548.425Q97.3309 532.465 101.092 516.569C102.038 512.475 102.564 507.778 103.962 503.847C104.523 502.272 105.384 501.841 106.824 501.228C106.964 501.168 107.106 501.112 107.247 501.055C107.588 499.68 106.661 498.626 106.037 497.385C106.556 493.163 107.938 489.009 109.175 484.948C114.207 468.427 119.766 451.49 126.197 435.458C131.272 422.808 137.171 410.514 142.538 397.991C146.958 387.676 150.515 376.132 156.925 366.878C161.341 360.502 166.838 355.846 173.645 352.213C180.422 353.487 187.32 354.15 194.068 355.572C206.83 358.262 219.313 362.786 231.272 367.93C237.433 370.579 257.918 382.318 261.514 382.67C262.865 382.229 262.904 382.225 263.704 381.056C263.663 379.865 263.29 379.206 262.541 378.319C259.128 374.276 253.239 371.566 248.641 369.052C231.349 359.6 211.628 351.745 192.115 348.389C187.891 347.663 183.526 347.431 179.261 346.959C191.25 333.137 199.715 312.006 219.006 307.593Z"/>
	<path d="M235.815 338.838C235.937 340.106 236.057 341.339 235.306 342.48C235.021 342.911 234.586 343.233 234.196 343.558C233.43 343.51 233.233 343.687 232.693 343.043C231.98 342.191 231.913 341.481 231.692 340.424L235.815 338.838Z"/>
	<path d="M90.8766 671.569C91.1237 673.255 90.7801 674.422 89.7805 675.786C89.0028 676.848 88.1588 677.328 86.9975 677.896L85.8654 677.788C85.5309 676.549 85.8162 675.852 86.402 674.714C86.8505 673.842 87.4398 672.914 88.0349 672.133L90.8766 671.569Z"/>
	<path d="M91.9174 667.171C94.35 664.402 96.723 661.478 99.3244 658.871C97.7811 662.94 95.9365 668.479 92.0477 670.811L90.881 670.855C91.1587 669.615 91.5618 668.392 91.9174 667.171Z"/>
	<path d="M137.639 425.852L138.378 426.417C138.685 427.164 138.891 427.302 138.689 428.13C137.86 431.527 133.622 435.332 130.736 437.077C130.382 435.534 130.341 434.843 130.982 433.399C133.078 432.14 134.36 431.496 135.017 428.996C135.373 427.643 136.639 426.821 137.639 425.852Z"/>
	<path d="M102.312 545.887L102.863 546.556C103.122 550.993 99.737 550.277 98.2443 553.433C98.3534 553.663 98.7277 554.413 98.7518 554.644C98.9003 556.069 96.4368 558.643 95.5561 559.815C95.453 560.762 95.3069 561.638 95.0507 562.554L94.7898 563.471C94.1168 562.871 93.4034 562.573 93.2941 561.625C92.7262 556.696 99.4152 549.442 102.312 545.887Z"/>
	<path d="M84.2354 678.222C85.482 678.678 85.5769 678.564 86.1629 679.73C85.2483 685.756 78.9317 692.472 76.1588 698.051L75.7547 698.873C74.9248 698.519 74.4182 698.117 73.755 697.509C73.7576 695.014 82.2435 680.838 84.2354 678.222Z"/>
	<path d="M85.4157 626.685C84.7456 626.113 83.9644 625.495 83.4203 624.797C82.7316 623.914 82.5566 622.891 82.6806 621.795C83.112 617.981 86.4026 614.872 89.4127 612.83C90.5024 612.09 91.0903 611.661 92.4314 611.914L92.5477 612.89L91.3849 614.116C88.0118 616.409 89.3176 618.01 87.459 619.809C86.1248 621.1 85.0531 620.946 84.101 622.841L84.4659 624.236L84.2123 624.146L84.0811 622.927L83.9431 623.387L84.8106 624.282C88.9055 623.417 90.3692 620.111 92.5288 616.902L94.8122 615.145L95.5127 615.248C95.5215 615.99 95.4257 616.527 95.1084 617.203C93.1965 621.282 86.4388 632.633 82.3664 634.147L82.0523 633.382C82.6244 630.844 84.0452 628.855 85.4157 626.685Z"/>
	<path d="M87.3315 671.302C84.7616 672.896 83.6774 675.337 81.5814 677.362C80.7291 678.185 80.7694 678.287 79.5401 678.223C79.4741 677.15 79.3832 677.485 79.7154 676.543C82.3269 669.142 94.6776 654.688 101.691 651.343C98.5131 656.23 93.8796 660.306 91.3308 665.597L91.9174 667.171C91.5618 668.392 91.1587 669.615 90.881 670.855L90.8766 671.569L88.0349 672.133L87.3315 671.302Z"/>
	<path fill="#F38F85" d="M91.3308 665.597L91.9174 667.171C91.5618 668.392 91.1587 669.615 90.881 670.855L90.8766 671.569L88.0349 672.133L87.3315 671.302C87.3432 671.228 87.3516 671.154 87.3666 671.08C87.9519 668.228 88.9505 667.212 91.3308 665.597Z"/>
	<path d="M336.336 468.341C339.019 469.727 340.443 470.895 342.48 473.163C344.002 474.858 344.572 474.717 346.79 475.028C346.6 476.408 346.496 477.493 346.762 478.886L347.513 479.677C348.93 479.536 349.677 479.109 350.83 480.045C351.182 481.959 350.969 483.986 352.286 485.508L352.937 485.735C354.334 484.875 354.865 484.368 356.53 484.318L357.727 485.27L357.768 486.327Q356.431 487.621 355.117 488.938C355.753 490.019 356.766 490.217 357.987 490.463C359.944 490.857 362.116 490.44 364.056 490.134C362.022 491.459 360.119 492.936 358.194 494.412C350.704 489.024 340.744 476.608 336.336 468.341Z"/>
	<path d="M179.697 377.115C180.964 377.097 181.901 376.751 182.844 377.661C179.392 381.1 166.935 385.111 161.932 387.422C157.606 389.421 153.388 391.686 149.166 393.895C148.109 394.303 147.917 394.55 146.771 394.316L146.886 393.476C154.371 384.334 168.445 379.269 179.697 377.115Z"/>
	<path d="M337.165 467.114L336.494 465.498L336.884 464.99C347.098 465.932 361.258 481.902 367.557 489.533C369.689 492.116 373.821 497.771 373.529 501.128C373.445 502.085 373.257 502.867 372.808 503.724L372.186 503.822C372.221 503.548 372.266 503.275 372.291 503.001C372.603 499.566 366.252 492.934 364.056 490.134C359.461 483.818 353.654 478.754 347.736 473.732C344.443 471.06 341.358 468.21 337.165 467.114Z"/>
	<path d="M196.898 328.385C201.57 328.699 207.386 327.523 211.775 328.765C211.79 329.481 211.823 330.159 211.886 330.869C212.282 331.252 212.394 331.414 212.965 331.662C214.184 332.189 215.36 332.21 216.458 331.589L216.513 330.828C215.472 330.404 214.869 330.217 214.022 329.467C214.948 328.83 214.679 328.903 215.699 328.603C221.089 327.017 231.34 332.017 235.9 334.825C238.622 336.501 244.312 340.255 245.077 343.446L244.321 344.175C243.761 344.268 242.454 344.664 241.956 344.569C240.933 344.373 239.819 340.833 239.111 339.97C238.323 339.01 236.636 338.311 235.547 337.719L235.815 338.838L231.692 340.424L231.325 340.252C230.854 340.605 230.342 340.759 229.798 340.973C229.223 340.924 203.093 331.793 201.388 331.032C199.81 330.328 198.337 329.336 196.898 328.385Z"/>
	<path fill="#F38F85" d="M231.325 340.252C230.894 340.115 230.09 339.876 229.706 339.68C228.516 339.072 228.561 338.623 228.286 337.422C228.865 336.078 229.014 336.048 230.28 335.28C232.703 335.219 233.806 336.174 235.547 337.719L235.815 338.838L231.692 340.424L231.325 340.252Z"/>
	<path fill="#F38F85" d="M217.135 330.833C217.705 330.869 218.078 330.956 218.581 331.236C221.164 332.675 223.796 332.538 226.479 333.511C227.743 333.969 228.057 334.72 228.556 335.871C225.926 336.657 222.821 336.245 220.409 334.962C218.451 333.92 217.788 332.929 217.135 330.833Z"/>
	<path d="M370.028 544.208C370.863 544.362 371.417 544.566 372.163 545.002C379.245 549.133 384.848 563.888 386.5 571.491C387.024 573.902 387.673 577.924 386.245 580.103L385.442 579.972C384.162 578.614 384.037 577.517 383.745 575.696L383.641 575.002L379.283 578.214C380.068 580.266 380.305 582.306 380.451 584.485L379.797 585.189L379.762 585.181C375.804 579.867 371.681 561.141 370.736 554.009C371.624 552.43 373.251 553.333 374.661 552.188C374.148 549.582 371.267 547.774 370.341 545.178C370.227 544.858 370.132 544.531 370.028 544.208Z"/>
	<path fill="#F38F85" d="M377.345 570.142C378.224 570.052 379.131 569.942 380.016 569.967C381.225 570.001 382.097 570.338 382.942 571.212C383.043 572.49 383.025 572.557 382.361 573.654C381.013 574.163 380.361 574.455 378.897 574.163C377.67 573.084 377.621 571.665 377.345 570.142Z"/>
	<path fill="#F38F85" d="M374.532 553.182C376.923 554.332 378.613 558.618 379.764 560.995C379.681 562.525 378.571 563.047 377.909 564.415L378.931 565.179C379.118 565.18 379.306 565.172 379.494 565.18C381.316 565.256 381.897 565.635 383.133 566.875C382.572 567.337 381.95 567.898 381.293 568.211C380.04 568.808 379.312 568.609 378.109 568.101C377.066 566.782 376.216 565.433 375.647 563.839C374.483 560.579 373.07 556.383 374.532 553.182Z"/>
	<path d="M294.254 402.006C296.841 402.115 299.353 403.089 301.692 404.143C309.375 407.606 330.746 423.603 333.352 431.668C333.631 432.53 333.616 432.161 333.21 433.022C332.692 433.149 332.569 433.215 331.97 433.166C327.684 432.813 329.047 429.307 327.198 426.96C326.736 426.373 326.706 426.576 325.82 426.462C324.568 428.095 325.07 430.218 323.761 431.621L322.798 431.389C321.658 430.113 321.279 429.922 321.068 428.174C321.588 427.073 322.363 425.73 322.427 424.499C322.489 423.335 321.861 422.292 320.996 421.582C320.288 421.001 320.182 421.231 319.358 421.361C319.032 421.826 318.801 422.096 318.61 422.666C317.98 424.548 319.334 427.21 319.991 428.976C314.271 425.499 293.109 407.653 289.881 402.586C292.574 404.471 297.411 408.418 300.618 408.525L300.861 407.942C299.237 405.669 296.556 404.327 294.574 402.335C294.466 402.226 294.361 402.116 294.254 402.006Z"/>
	<path fill="#F38F85" d="M314.918 416.237C316.251 416.908 316.788 417.187 317.559 418.538C317.784 420.344 317.109 421.745 316.48 423.413C315.493 422.313 314.626 421.259 313.831 420.011C313.724 418.213 314.095 417.792 314.918 416.237Z"/>
	<path fill="#DE7976" d="M301.787 408.355C303.267 408.908 304.866 409.008 306.294 409.602C308.804 410.646 312.213 412.648 313.309 415.203L312.631 416.456C312.19 416.859 311.942 417.124 311.392 417.431C310.364 418.004 309.482 417.959 308.462 417.524C307.733 416.37 307.793 415.21 307.718 413.888L307.685 413.237C306.817 412.608 306.32 412.339 305.261 412.295C304.377 412.258 303.649 412.155 302.783 411.931C301.799 410.721 301.832 409.834 301.787 408.355Z"/>
	<path fill="#482F2F" d="M325.89 62.2364C345.46 62.5451 363.844 66.4466 381.786 74.2979C385.707 76.0134 389.223 78.5136 393.159 80.2034C403.138 84.4881 412.961 88.2039 421.866 94.6446C429.989 100.519 436.151 108.318 443.86 114.108C446.144 115.823 448.835 116.967 451.257 118.466C455.6 121.155 456.266 127.953 457.307 132.506C426.136 131.835 417.911 158.621 394.706 172.967C383.119 180.13 369.386 179.05 357.442 184.872C347.116 189.906 340.613 200.491 330.06 205.32C326.287 207.046 321.584 208.265 317.574 206.613C313.39 204.891 311.583 201.338 309.906 197.442C312.006 198.292 314.169 199.15 316.357 199.745C323.224 201.614 328.83 200.002 334.77 196.531C330.01 197.141 325.154 198.592 320.339 198.502C312.042 198.346 307.111 191.295 301.764 185.993C298.16 182.419 293.848 179.44 288.56 179.596C283.218 179.754 278.426 182.388 274.608 185.956C268.546 191.621 264.52 199.156 260.243 206.169Q250.807 221.824 241.087 237.303C236.715 244.215 232.373 251.792 226.716 257.736L226.151 258.324C223.538 254.631 221.792 247.261 218.039 244.987L217.362 245.217C215.812 248.859 218.181 256.427 218.475 260.488C218.654 262.957 218.563 265.513 218.309 267.976C217.506 275.762 214.284 284.539 207.93 289.475C203.692 292.768 198.232 294.522 192.878 293.754C184.867 292.606 177.905 286.552 173.299 280.181C163.819 267.067 165.673 252.321 168.195 237.252C163.261 246.121 161.324 255.242 163.246 265.308C166.074 280.12 175.118 288.722 187.145 296.816C177.402 295.908 168.184 293.414 160.355 287.288C151.746 280.551 148.32 270.85 147.014 260.288C145.583 248.719 147.304 234.349 154.114 224.572C156.971 220.469 160.711 217.017 163.786 213.052L163.079 213.409C155.986 216.904 151.359 222.55 148.103 229.66C140.645 245.944 142.778 262.14 148.827 278.367C146.053 276.005 143.297 273.593 140.727 271.009C129.796 260.025 124.19 244.535 124.3 229.153C124.398 215.466 129.533 204.077 139.179 194.504C147.074 187.236 157.318 183.58 167.961 183.138C184.408 182.455 198.039 189.518 209.831 200.493C208.683 202.785 207.786 205.123 206.891 207.52C206.753 207.389 206.618 207.255 206.477 207.128C196.422 198.044 183.595 191.773 169.791 192.742Q168.808 192.807 167.83 192.921Q166.852 193.035 165.88 193.197Q164.909 193.359 163.947 193.57Q162.985 193.78 162.034 194.038Q161.084 194.296 160.147 194.601Q159.211 194.906 158.291 195.257Q157.37 195.608 156.469 196.004Q155.567 196.4 154.686 196.841Q153.805 197.281 152.948 197.765Q152.09 198.249 151.257 198.775Q150.424 199.301 149.619 199.868Q148.813 200.434 148.037 201.04Q147.26 201.646 146.515 202.29Q145.77 202.934 145.057 203.614Q144.345 204.294 143.667 205.008Q142.989 205.723 142.348 206.47C136.495 213.286 129.485 225.871 130.178 235.126L130.668 235.265C131.967 231.805 132.665 228.097 133.848 224.589C135.633 219.291 139.771 213.27 143.46 209.1C150.416 201.24 159.594 196.312 170.136 195.692C183.697 194.895 195.829 200.726 205.792 209.534C207.099 215.026 208.286 220.25 210.889 225.288C210.113 228.398 209.315 231.427 209.493 234.666C209.654 237.591 210.546 240.463 212.908 242.352C216.503 245.227 220.751 244.525 224.978 244.122C225.476 237.822 224.645 231.419 224.931 225.086C225.902 203.567 229.602 179.879 238.068 160.008C245.127 143.441 256.848 128.56 273.437 120.792C278.298 118.516 283.503 117.309 288.451 115.274L289.049 115.023C276.004 116.584 264.212 121.496 254.364 130.305C228.894 153.091 222.962 194.458 221.256 226.962C213.672 198.556 217.514 163.951 229.882 137.423C233.457 129.757 238.704 123.142 242.642 115.688L243.027 114.952C220.638 141.183 217.283 162.913 213.485 195.66Q212.237 187.117 211.97 178.488C211.023 148.84 220.411 121.162 240.889 99.4368C263.346 75.6132 293.475 63.2856 325.89 62.2364Z"/>
	<path d="M247.279 194.396C247.475 195.31 230.496 245.776 228.582 249.928C227.467 252.349 226.674 252.848 224.266 253.737C224.122 253.178 223.979 252.629 223.973 252.048C223.971 251.86 238.511 209.466 239.904 206.408C241.879 202.07 244.065 197.951 247.279 194.396Z"/>
	<path d="M396.988 147.416L397.381 147.843C397.215 150.07 395.34 152.339 393.945 154.006C391.155 157.343 387.619 159.874 383.742 161.805C376.109 165.605 367.494 167.216 359.456 169.989C348.24 173.86 337.718 178.86 326.097 181.652C318.178 183.556 310.272 184.431 302.184 185.154L301.836 184.455C302.63 183.812 303.312 183.654 304.298 183.457C307.304 182.856 310.387 182.819 313.42 182.402C319.47 181.571 325.805 180.133 331.728 178.597C340.425 176.342 347.98 171.848 356.257 168.546C374.66 161.204 382.059 162.975 396.988 147.416Z"/>
	<path d="M370.186 134.487C370.258 134.943 370.297 134.96 370.167 135.499C369.148 139.741 363.326 144.837 360.224 147.708C344.382 162.37 327.201 164.752 306.392 163.023C298.698 162.384 290.658 161.529 283.035 163.207C275.169 164.939 268.86 170.123 262.497 174.759L262.142 174.514C262.42 173.944 262.701 173.56 263.164 173.123C279.13 158.038 289.971 159.772 310.431 160.51C341.425 161.629 348.447 154.681 370.186 134.487Z"/>
	<path fill="#B19C93" d="M474.514 363.268C474.752 363.336 475 363.378 475.228 363.474C488.14 368.93 456.461 450.362 458.983 458.606L459.642 458.483C469.417 449.637 473.658 401.222 483.136 385.973C484.265 384.157 485.755 381.967 487.956 381.479C488.71 382.036 488.865 381.932 489.088 382.936C489.606 385.258 488.445 386.706 487.29 388.597C488.312 393.467 488.906 397.807 488.629 402.797C488.091 412.494 477.755 464.215 479.785 468.264L480.564 468.153C487.902 458.893 488.396 426.804 494.521 413.339C495.135 411.989 495.651 411.216 497.062 410.738C497.416 411.068 497.496 411.096 497.748 411.596C499.016 414.119 498.646 419.522 498.736 422.443C499.705 454.076 493.474 497.095 484.73 527.39C481.287 539.319 476.817 554.423 465.254 560.801C465.911 573.906 465.863 578.798 463.723 591.947C452.263 662.35 427.831 772.074 365.836 816.236C359.854 820.497 353.675 822.656 346.28 821.241C335.14 819.109 325.076 809.982 316.846 802.665C288.281 777.264 265.328 747.4 244.339 715.599L242.014 711.876C266.541 697.539 291.056 681.82 318.823 674.546C327.939 672.158 337.14 670.838 346.461 669.57C354.846 688.302 363.554 707.139 364.042 728.078C364.166 733.423 363.113 738.706 362.992 744.049C363.688 744.954 363.605 744.947 364.727 745.112C365.21 744.697 365.523 744.315 365.783 743.728C367.362 740.167 367.717 735.598 368.061 731.756C370.11 708.826 361.035 688.248 352.633 667.523C372.437 648.82 387.999 622.759 400.341 598.726C411.076 577.824 424.714 546.673 416.793 523.229C415.876 520.513 414.064 515.125 411.405 513.8L410.569 514.083C410.601 521.358 413.451 528.743 413.735 536.22C398.689 519.331 391.269 500.071 397.119 477.479C400.878 462.958 405.929 450.084 406.491 434.856C425.334 451.743 404.42 464.984 408.578 475.222C408.917 476.057 409.262 476.009 410.014 476.364C411.034 475.999 411.101 475.993 411.607 475.086C413.17 472.286 413.967 468.426 415.296 465.382C423.044 447.632 445.418 386.56 454.985 377.105C456.351 375.755 457.436 375.141 459.364 375.167C460.81 376.55 460.886 377.903 460.599 379.836C459.715 385.805 456.415 391.975 454.364 397.655C450.194 409.206 447 421.149 443.109 432.801C440.972 439.202 437.759 445.807 436.484 452.449C436.121 454.341 436.094 456.338 436.782 458.149L437.528 458.305C441.2 454.727 443.023 445.612 444.661 440.681Q452.006 418.543 459.616 396.494C462.388 388.247 464.473 379.322 468.306 371.519C469.936 368.199 471.76 365.722 474.514 363.268Z"/>
	<path fill="#ECE9E0" d="M198.89 380.623C208.979 379.627 219.591 381.171 229.054 384.737C237.667 387.982 245.469 392.783 252.49 398.709C293.096 432.982 334.075 516.354 353.585 566.225Q360.448 583.85 366.504 601.768C369.455 610.708 371.739 619.823 375.611 628.434C367.885 640.177 360.055 651.606 350.981 662.357Q338.816 631.25 328.827 599.378C323.847 583.106 319.713 566.576 314.964 550.235Q310.339 533.966 304.715 518.015Q299.091 502.063 292.49 486.491C288.675 477.648 285.1 468.477 278.77 461.094C303.693 521.751 316.049 586.402 338.635 647.789C329.54 648.575 320.423 649.502 311.516 651.576C282.677 658.291 252.005 673.788 229.96 693.602C225.351 686.253 221.032 678.693 216.594 671.238C199.475 643.265 183.67 613.652 169.831 583.921Q164.022 571.377 158.799 558.578C156.669 553.358 154.818 547.508 152.053 542.616C161.465 593.262 214.287 684.312 244.256 727.564Q265.248 757.873 289.513 785.63C279.107 783.563 267.946 783.661 257.372 782.91C232.079 781.113 206.862 776.799 183.685 766.145C180.951 739.088 168.761 712.847 159.791 687.404Q151.412 663.599 146.285 638.888C132.275 571.939 128.01 462.884 167.506 403.145C175.137 391.603 185.164 383.461 198.89 380.623Z"/>
	<path d="M211.317 420.168C217.744 419.451 226.047 419.771 231.872 422.881C218.849 420.827 207.764 421.179 195.487 426.508C172.391 436.535 160.447 458.516 151.708 480.875C149.68 486.08 147.963 491.605 145.123 496.427C148.629 478.747 154.77 461.207 165.641 446.625C177.068 431.297 192.552 422.902 211.317 420.168Z"/>
</svg>
